# AST/ASF file generated using VICON BodyLanguage
# -----------------------------------------------
:version 1.10
:name VICON
:units
  mass 1.0
  length 0.45
  angle deg
:documentation
   .ast/.asf automatically generated from VICON data using
   VICON BodyBuilder and BodyLanguage model FoxedUp or BRILLIANT.MOD
:root
   order TX TY TZ RX RY RZ
   axis XYZ
   position 0 0 0  
   orientation 0 0 0 
:bonedata
  begin
     id 1 
     name lhipjoint
     direction 0.661853 -0.702389 0.261917 
     length 2.64193 
     axis 0 0 0  XYZ
  end
  begin
     id 2 
     name lfemur
     direction 0.34202 -0.939693 0  
     length 7.01722  
     axis 0 0 20  XYZ
    dof rx ry rz
    limits (-160.0 20.0)
           (-70.0 70.0)
           (-60.0 70.0)
  end
  begin
     id 3 
     name ltibia
     direction 0.34202 -0.939693 0   
     length 8.25008   
     axis 0 0 20   XYZ
    dof rx
    limits (-10.0 170.0)
  end
  begin
     id 4 
     name lfoot
     direction 0.0709916 -0.195048 0.978221   
     length 2.31941   
     axis -90 7.62852e-016 20   XYZ
    dof rx rz
    limits (-45.0 90.0)
           (-70.0 20.0)
  end
  begin
     id 5 
     name ltoes
     direction 1.53586e-011 -4.22017e-011 1   
     length 1.16486   
     axis -90 7.62852e-016 20   XYZ
    dof rx
    limits (-90.0 20.0)
  end
  begin
     id 6 
     name rhipjoint
     direction -0.638185 -0.721362 0.268992   
     length 2.57244  
     axis 0 0 0  XYZ 
  end
  begin
     id 7 
     name rfemur
     direction -0.34202 -0.939693 0   
     length 7.07017   
     axis 0 0 -20   XYZ
    dof rx ry rz
    limits (-160.0 20.0)
           (-70.0 70.0)
           (-70.0 60.0)
  end
  begin
     id 8 
     name rtibia
     direction -0.34202 -0.939693 0   
     length 8.20386   
     axis 0 0 -20   XYZ
    dof rx
    limits (-10.0 170.0)
 end
 begin
     id 9 
     name rfoot
     direction -0.0822429 -0.225961 0.970658   
     length 2.32215  
     axis -90 -7.62852e-016 -20   XYZ
    dof rx rz
    limits (-45.0 90.0)
           (-20.0 70.0)
  end
  begin
     id 10 
     name rtoes
     direction -1.53597e-011 -4.21689e-011 1   
     length 1.16333   
     axis -90 -7.62852e-016 -20   XYZ
    dof rx
    limits (-90.0 20.0)
  end
  begin
     id 11 
     name lowerback
     direction -0.0131557 0.998589 -0.0514484   
     length 2.14993   
     axis 0 0 0   XYZ
    dof rx ry rz
    limits (-20.0 45.0)
           (-30.0 30.0)
           (-30.0 30.0)
  end
  begin
     id 12 
     name upperback
     direction -0.000776481 0.999993 0.00352685   
     length 2.15301   
     axis 0 0 0   XYZ
    dof rx ry rz
    limits (-20.0 45.0)
           (-30.0 30.0)
           (-30.0 30.0)
  end
  begin
     id 13 
     name thorax
     direction 0.00438186 0.999609 0.0276143   
     length 2.15424   
     axis 0 0 0   XYZ
    dof rx ry rz
    limits (-20.0 45.0)
           (-30.0 30.0)
           (-30.0 30.0)
  end
  begin
     id 14 
     name lowerneck
     direction -0.0488006 0.998094 0.0377807   
     length 1.90481   
     axis 0 0 0   XYZ
    dof rx ry rz
    limits (-20.0 45.0)
           (-30.0 30.0)
           (-30.0 30.0)
  end
  begin
     id 15 
     name upperneck
     direction 0.0443769 0.990702 -0.12861   
     length 1.91305   
     axis 0 0 0   XYZ
    dof rx ry rz
    limits (-20.0 45.0)
           (-30.0 30.0)
           (-30.0 30.0)
  end
  begin
     id 16
     name head
     direction 0.0165599 0.998647 -0.0492982  
     length 1.92369  
     axis 0 0 0   XYZ
    dof rx ry rz
    limits (-20.0 45.0)
           (-30.0 30.0)
           (-30.0 30.0)
  end
  begin
     id 17 
     name lclavicle
     direction 0.911936 0.410197 -0.0105506  
     length 3.52622  
     axis 0 0 0   XYZ
    dof ry rz
    limits (-20.0 10.0)
           (0.0 20.0)
  end
  begin
     id 18 
     name lhumerus
     direction 1 -4.48974e-011 -2.48591e-028   
     length 5.47651   
     axis 180 -30 -90   XYZ
    dof rx ry rz
    limits (-60.0 90.0)
           (-90.0 90.0)
           (-90.0 90.0)
  end
  begin
     id 19
     name lradius
     direction 1 -4.48938e-011 -4.40099e-027   
     length 3.09058   
     axis 180 -30 -90   XYZ
    dof rx
    limits (-10.0 170.0)
  end
  begin
     id 20
     name lwrist
     direction 1 -4.49042e-011 -2.99852e-027   
     length 1.54529   
     axis 1.95339e-015 90 90   XYZ
    dof ry
    limits (-180.0 0.0)
 end
  begin
     id 21 
     name lhand
     direction 1 -4.48815e-011 -5.98193e-027   
     length 0.771611   
     axis 3.82337e-015 90 90   XYZ
    dof rx rz
    limits (-90.0 90.0)
           (-45.0 45.0)
  end
  begin
     id 22 
     name lfingers
     direction 1 -4.49034e-011 -1.1993e-026   
     length 0.622093   
     axis 7.64668e-015 90 90   XYZ
    dof rx
    limits (0.0 90.0)
  end
  begin
     id 23
     name lthumb
     direction 0.707107 -6.34867e-011 0.707107   
     length 0.893204   
     axis -90 45 -1.62303e-014   XYZ
    dof rx rz
    limits (-45.0 45.0)
           (-45.0 45.0)
  end
  begin
     id 24 
     name rclavicle
     direction -0.93442 0.355634 -0.0195692   
     length 3.62463  
     axis 0 0 0   XYZ 
    dof ry rz
    limits (-10.0 20.0)
           (-20.0 0.0)
  end
  begin
     id 25 
     name rhumerus
     direction -1 -4.48957e-011 -1.19147e-027  
     length 5.14182   
     axis 180 30 90   XYZ
    dof rx ry rz
    limits (-90.0 60.0)
           (-90.0 90.0)
           (-90.0 90.0)
  end
  begin
     id 26 
     name rradius
     direction -1 -4.48952e-011 -3.81062e-027   
     length 3.35565   
     axis 180 30 90   XYZ
    dof rx
    limits (-10.0 170.0)
  end
  begin
     id 27 
     name rwrist
     direction -1 -4.48973e-011 -2.99621e-027   
     length 1.67782   
     axis 1.95339e-015 -90 -90   XYZ
    dof ry
    limits (-180.0 0.0)
  end
  begin
     id 28
     name rhand
     direction -1 -4.48895e-011 -5.98727e-027   
     length 0.801042   
     axis 3.82337e-015 -90 -90   XYZ
    dof rx rz
    limits (-90.0 90.0)
           (-45.0 45.0)
  end
  begin
     id 29
     name rfingers
     direction -1 -4.49065e-011 -1.19972e-026   
     length 0.645821   
     axis 7.64668e-015 -90 -90   XYZ
    dof rx
    limits (0.0 90.0)
  end
  begin
     id 30
     name rthumb
     direction -0.707107 -6.34957e-011 0.707107   
     length 0.927273   
     axis -90 -45 1.62303e-014   XYZ
    dof rx rz
    limits (-45.0 45.0)
           (-45.0 45.0)
  end
:hierarchy
  begin
    root lhipjoint rhipjoint lowerback
    lhipjoint lfemur
    lfemur ltibia
    ltibia lfoot
    lfoot ltoes
    rhipjoint rfemur
    rfemur rtibia
    rtibia rfoot
    rfoot rtoes
    lowerback upperback
    upperback thorax
    thorax lowerneck lclavicle rclavicle
    lowerneck upperneck
    upperneck head
    lclavicle lhumerus
    lhumerus lradius
    lradius lwrist
    lwrist lhand lthumb
    lhand lfingers
    rclavicle rhumerus
    rhumerus rradius
    rradius rwrist
    rwrist rhand rthumb
    rhand rfingers
  end

#!OML:ASF E:\Style4\Style4.ASF
:FULLY-SPECIFIED
:DEGREES
1
root -0.582126 18.0989 -0.75147 0.0601014 1.59246 2.85354
lowerback 4.80407 2.18305 -1.80318
upperback 2.88814 2.83746 0.471792
thorax 0.165892 1.39533 1.36168
lowerneck -4.65131 -7.29349 -6.8129
upperneck 8.07299 -9.48491 2.86752
head 4.01254 -4.78773 1.65383
rclavicle 2.39039e-014 -4.37326e-015
rhumerus -46.9716 43.5846 -88.9791
rradius 112.769
rwrist -27.2936
rhand -12.2522 28.7937
rfingers 7.12502
rthumb 13.8139 -0.727576
lclavicle 2.39039e-014 -4.37326e-015
lhumerus -43.0932 -48.0029 91.3802
lradius 114.656
lwrist 14.0421
lhand -0.645545 15.9748
lfingers 7.12502
lthumb 24.9719 44.3629
rfemur -6.92159 3.43586 18.4796
rtibia 22.5386
rfoot -15.2088 -15.8391
rtoes -6.47895
lfemur -3.37721 -4.5191 -19.8399
ltibia 14.5695
lfoot -11.7274 12.8017
ltoes -18.1941
2
root -0.589308 18.0962 -0.768818 0.0226813 1.66409 2.82069
lowerback 4.96332 2.20085 -1.75386
upperback 2.95774 2.8606 0.501231
thorax 0.148886 1.40693 1.35841
lowerneck -4.62704 -7.26555 -6.79361
upperneck 7.90539 -9.44833 2.87506
head 3.94513 -4.76775 1.65877
rclavicle 2.54444e-014 1.55052e-014
rhumerus -46.939 44.6409 -88.7904
rradius 113.011
rwrist -28.5991
rhand -12.5422 28.7179
rfingers 7.12502
rthumb 13.5345 -0.822193
lclavicle 2.54444e-014 1.55052e-014
lhumerus -42.5391 -49.2093 90.9198
lradius 114.766
lwrist 14.891
lhand -0.737144 16.1089
lfingers 7.12502
lthumb 24.8841 44.5093
rfemur -6.97202 3.41805 18.5427
rtibia 22.5963
rfoot -15.175 -15.897
rtoes -6.47487
lfemur -3.47227 -4.53724 -19.7645
ltibia 14.6799
lfoot -11.7711 12.707
ltoes -18.0275
3
root -0.595316 18.0951 -0.786668 0.00866891 1.74631 2.85463
lowerback 5.11307 2.1868 -1.77537
upperback 3.02286 2.83856 0.50707
thorax 0.132138 1.39531 1.37308
lowerneck -4.64538 -7.20975 -6.70554
upperneck 7.74756 -9.37303 2.83551
head 3.87986 -4.72811 1.63678
rclavicle -2.68359e-015 -4.37326e-015
rhumerus -46.7895 45.8127 -88.5737
rradius 113.19
rwrist -29.7875
rhand -12.8895 28.6793
rfingers 7.12502
rthumb 13.1997 -0.882787
lclavicle -2.68359e-015 -4.37326e-015
lhumerus -41.8605 -50.226 90.274
lradius 114.849
lwrist 15.4999
lhand -0.517484 16.127
lfingers 7.12502
lthumb 25.0946 44.4981
rfemur -7.07569 3.37158 18.5227
rtibia 22.7326
rfoot -15.2192 -15.905
rtoes -6.37105
lfemur -3.5512 -4.58229 -19.7741
ltibia 14.7196
lfoot -11.7368 12.614
ltoes -18.1224
4
root -0.600597 18.0946 -0.805008 0.083476 1.83286 2.91918
lowerback 5.16281 2.15802 -1.81285
upperback 3.08622 2.79811 0.503468
thorax 0.169632 1.37385 1.39203
lowerneck -4.74159 -7.13007 -6.64095
upperneck 7.62809 -9.26246 2.83097
head 3.84557 -4.66996 1.62945
rclavicle -1.83876e-014 1.98785e-014
rhumerus -46.5193 47.0367 -88.2293
rradius 113.379
rwrist -31.0766
rhand -13.1962 28.68
rfingers 7.12502
rthumb 12.9041 -0.901051
lclavicle -1.83876e-014 1.98785e-014
lhumerus -41.1088 -51.2119 89.5645
lradius 114.956
lwrist 16.2369
lhand -0.554855 16.18
lfingers 7.12502
lthumb 25.0588 44.556
rfemur -7.26709 3.31505 18.4626
rtibia 22.8407
rfoot -15.156 -15.9837
rtoes -6.4719
lfemur -3.75026 -4.58524 -19.8147
ltibia 14.7892
lfoot -11.666 12.552
ltoes -18.2833
5
root -0.606538 18.0947 -0.824287 0.155265 1.90095 2.91598
lowerback 5.22564 2.15111 -1.74898
upperback 3.13971 2.7907 0.486903
thorax 0.193761 1.37047 1.33862
lowerneck -4.79403 -7.05997 -6.55675
upperneck 7.49117 -9.17253 2.86583
head 3.79915 -4.62027 1.6323
rclavicle 4.18442e-014 -1.19271e-014
rhumerus -46.3145 48.2574 -87.9523
rradius 113.589
rwrist -32.465
rhand -13.6203 28.8347
rfingers 7.12502
rthumb 12.4952 -0.77174
lclavicle 4.18442e-014 -1.19271e-014
lhumerus -40.2537 -52.3639 88.6917
lradius 115.091
lwrist 16.9641
lhand -0.57065 16.2591
lfingers 7.12502
lthumb 25.0437 44.6372
rfemur -7.47351 3.29788 18.4734
rtibia 22.9538
rfoot -15.1387 -16.027
rtoes -6.17977
lfemur -3.96192 -4.57354 -19.7761
ltibia 14.8541
lfoot -11.5277 12.5378
ltoes -18.5863
6
root -0.614904 18.0943 -0.846861 0.234722 2.01926 2.91396
lowerback 5.33054 2.14545 -1.70897
upperback 3.17734 2.78319 0.495935
thorax 0.175862 1.36705 1.3227
lowerneck -4.80325 -7.02242 -6.62312
upperneck 7.32005 -9.12442 2.99491
head 3.75042 -4.59223 1.69206
rclavicle 1.83876e-014 -5.96354e-015
rhumerus -46.0586 49.5252 -87.5411
rradius 113.891
rwrist -33.8193
rhand -14.1364 28.8317
rfingers 7.12502
rthumb 11.9976 -0.804467
lclavicle 1.83876e-014 -5.96354e-015
lhumerus -39.3897 -53.5997 87.8601
lradius 115.272
lwrist 17.8662
lhand -0.718366 16.5531
lfingers 7.12502
lthumb 24.9021 44.951
rfemur -7.68507 3.2742 18.4946
rtibia 23.0472
rfoot -15.1257 -16.079
rtoes -5.86627
lfemur -4.22139 -4.61783 -19.724
ltibia 14.9607
lfoot -11.4798 12.4344
ltoes -18.1637
7
root -0.622733 18.0961 -0.870287 0.321985 2.16104 2.91316
lowerback 5.42411 2.14048 -1.65307
upperback 3.23708 2.77784 0.527105
thorax 0.186579 1.36436 1.32149
lowerneck -4.9916 -7.01716 -6.83179
upperneck 7.30126 -9.10141 3.15933
head 3.80318 -4.57854 1.77889
rclavicle -1.89839e-014 -4.77083e-015
rhumerus -45.5355 50.8082 -86.816
rradius 114.193
rwrist -35.0343
rhand -14.5475 28.7782
rfingers 7.12502
rthumb 11.6011 -0.880652
lclavicle -1.89839e-014 -4.77083e-015
lhumerus -38.2681 -54.9871 86.877
lradius 115.466
lwrist 19.0986
lhand -1.13678 16.8947
lfingers 7.12502
lthumb 24.5011 45.3475
rfemur -7.88706 3.18292 18.5148
rtibia 23.1288
rfoot -15.1993 -16.0891
rtoes -5.7279
lfemur -4.49787 -4.58276 -19.6714
ltibia 15.0873
lfoot -11.3803 12.2681
ltoes -18.3025
8
root -0.629818 18.0976 -0.893629 0.378222 2.24687 2.87824
lowerback 5.54607 2.13079 -1.56416
upperback 3.28271 2.76724 0.569873
thorax 0.168159 1.35973 1.31257
lowerneck -5.11279 -6.9857 -6.98406
upperneck 7.27938 -9.04552 3.25048
head 3.83153 -4.55036 1.83606
rclavicle 1.5207e-014 -4.77083e-015
rhumerus -44.9624 52.0989 -86.0717
rradius 114.423
rwrist -35.9895
rhand -14.8887 28.8915
rfingers 7.12502
rthumb 11.2721 -0.7856
lclavicle 1.5207e-014 -4.77083e-015
lhumerus -36.8578 -56.2018 85.5418
lradius 115.647
lwrist 20.0322
lhand -0.936758 17.103
lfingers 7.12502
lthumb 24.6928 45.5296
rfemur -8.07696 3.07267 18.5678
rtibia 23.2258
rfoot -15.2264 -16.0488
rtoes -5.77194
lfemur -4.7413 -4.32092 -19.5835
ltibia 15.2139
lfoot -11.1901 12.097
ltoes -19.5116
